<svg width="81" height="86" viewBox="0 0 81 86" fill="none" xmlns="http://www.w3.org/2000/svg">
<ellipse cx="40.5" cy="40" rx="40.5" ry="40" fill="#F94545"/>
<g filter="url(#filter0_d)">
<path d="M40.8333 54.5682C47.3594 54.5682 52.6667 48.7378 52.6667 41.5682V22.0682C52.6667 14.863 47.386 9 40.8955 9C40.6872 9.00137 40.4798 9.02863 40.2772 9.08125C37.2397 9.24304 34.3751 10.6814 32.276 13.0987C30.1769 15.5161 29.004 18.7274 29 22.0682V41.5682C29 48.7378 34.3073 54.5682 40.8333 54.5682Z" fill="black"/>
<path d="M37.5416 64.7757V71.5H43.4583V64.7757C55.1112 63.167 64.1666 52.2372 64.1666 39H58.25C58.25 49.7542 50.2891 58.5 40.5 58.5C30.7109 58.5 22.75 49.7542 22.75 39H16.8333C16.8333 52.234 25.8888 63.167 37.5416 64.7757Z" fill="black"/>
</g>
<defs>
<filter id="filter0_d" x="1" y="0" width="79" height="86" filterUnits="userSpaceOnUse" color-interpolation-filters="sRGB">
<feFlood flood-opacity="0" result="BackgroundImageFix"/>
<feColorMatrix in="SourceAlpha" type="matrix" values="0 0 0 0 0 0 0 0 0 0 0 0 0 0 0 0 0 0 127 0"/>
<feOffset dy="4"/>
<feGaussianBlur stdDeviation="2"/>
<feColorMatrix type="matrix" values="0 0 0 0 0 0 0 0 0 0 0 0 0 0 0 0 0 0 0.25 0"/>
<feBlend mode="normal" in2="BackgroundImageFix" result="effect1_dropShadow"/>
<feBlend mode="normal" in="SourceGraphic" in2="effect1_dropShadow" result="shape"/>
</filter>
</defs>
</svg>
